<?xml version="1.0" encoding="UTF-8" standalone="no"?>
<svg width="141px" height="35px" viewBox="0 0 141 35" version="1.1" xmlns="http://www.w3.org/2000/svg" xmlns:xlink="http://www.w3.org/1999/xlink">
    <!-- Generator: Sketch 3.7.1 (28215) - http://www.bohemiancoding.com/sketch -->
    <title>Shape + stamper</title>
    <desc>Created with Sketch.</desc>
    <defs></defs>
    <g id="Page-1" stroke="none" stroke-width="1" fill="none" fill-rule="evenodd">
        <g id="Artboard-1" transform="translate(-55.000000, -23.000000)" fill="#FFFFFF">
            <g id="Shape-+-stamper" transform="translate(55.000000, 23.000000)">
                <path d="M17.5034517,0 C16.7343876,0 15.9670812,0.234279978 15.3150099,0.692810719 L13.4681168,1.98119557 C12.8291168,2.43033955 12.0588027,2.67647648 11.267025,2.67400628 L8.99003343,2.66185171 C7.37397421,2.65620421 5.94224404,3.66303428 5.44804661,5.14138481 L4.7522992,7.21981697 C4.5100783,7.94406583 4.02828471,8.57364282 3.38610428,9.01869392 L1.53921115,10.3070788 C0.228566165,11.2156003 -0.318841664,12.8306884 0.185666188,14.3059336 L0.894063552,16.3843658 C1.14126541,17.1069912 1.14126541,17.8981116 0.894063552,18.6208074 L0.185666188,20.6992396 C-0.318848262,22.1744143 0.228701328,23.7897137 1.53921115,24.6980944 L3.38610428,25.9864793 C4.02821346,26.4316008 4.51020622,27.0611781 4.7522992,27.7853562 L5.44804661,29.8637884 C5.94230881,31.3421389 7.37397421,32.3486146 8.99003343,32.3433215 L11.267025,32.3311669 C12.0588027,32.3283276 12.8290456,32.5747628 13.4681168,33.0239776 L15.3150099,34.3123625 C16.6192293,35.2292125 18.3876741,35.2292125 19.6918936,34.3123625 L21.5387867,33.0239776 C22.1777854,32.5747628 22.9481004,32.3286259 23.7398785,32.3311669 L26.0168701,32.3433215 C27.6329289,32.348969 29.0645951,31.3421389 29.5588569,29.8637884 L30.2546043,27.7853562 C30.4967471,27.0611781 30.9786973,26.4316008 31.6207992,25.9864793 L33.4676923,24.6980944 C34.7782659,23.7897137 35.3257522,22.1744143 34.8212373,20.6992396 L34.1128399,18.6208074 C33.8656449,17.898182 33.8656449,17.107132 34.1128399,16.3843658 L34.8212373,14.3059336 C35.3257595,12.8306884 34.7782016,11.2156007 33.4676923,10.3070788 L31.6207992,9.01869392 C30.9786973,8.57357242 30.4966758,7.94406583 30.2546043,7.21981697 L29.5588569,5.14138481 C29.0645951,3.66303428 27.6329289,2.65662933 26.0168701,2.66185171 L23.7398785,2.67400628 C22.9481004,2.67684559 22.1778567,2.43033955 21.5387867,1.98119557 L19.6918936,0.692810719 C19.0398159,0.234279978 18.2725171,0 17.5034517,0 L17.5034517,0 Z M17.5034483,5.10416667 C24.3397703,5.10416667 29.9017241,10.66496 29.9017241,17.5 C29.9017241,24.33504 24.3397703,29.8958333 17.5034483,29.8958333 C10.667127,29.8958333 5.10517241,24.33504 5.10517241,17.5 C5.10517241,10.66496 10.667127,5.10416667 17.5034483,5.10416667 L17.5034483,5.10416667 Z M7.29310345,17.5 C7.29310345,23.1402442 11.8620016,27.7083333 17.5034483,27.7083333 C23.1449589,27.7083333 27.7137931,23.1402442 27.7137931,17.5 C27.7137931,11.8598284 23.1449589,7.29166667 17.5034483,7.29166667 C11.8620016,7.29166667 7.29310345,11.8598284 7.29310345,17.5 Z M19.2942382,13.282953 L19.2942382,14.534656 C19.4111877,14.5942609 19.5671205,14.6439316 19.7620363,14.6836683 C19.9569522,14.7234049 20.1275036,14.7432732 20.2736906,14.7432732 C20.302928,14.5942609 20.3321653,14.4253804 20.3614027,14.2366315 C20.3906401,14.0478825 20.4125682,13.8541666 20.4271869,13.6554837 C20.4418055,13.4568007 20.4539877,13.2606012 20.4637336,13.0668852 C20.4734795,12.8731693 20.4783523,12.6968382 20.4783523,12.5378917 C20.0787747,12.3789452 19.6353409,12.2547684 19.1480512,12.165361 C18.6607615,12.0759537 18.202709,12.03125 17.7738941,12.03125 C17.2768585,12.03125 16.8309884,12.0958219 16.4362837,12.2249659 C16.041579,12.35411 15.7053491,12.5354081 15.4275939,12.7688607 C15.1498387,13.0023133 14.9378677,13.282953 14.7916807,13.61078 C14.6454938,13.9386069 14.5724004,14.3012034 14.5724004,14.6985695 C14.5724004,15.3144868 14.6917864,15.8136778 14.9305583,16.1961427 C15.1693302,16.5786076 15.4690134,16.8940167 15.8296079,17.1423706 C16.1902024,17.3907244 16.5800341,17.5993416 16.9991034,17.7682221 C17.4181726,17.9371026 17.8080043,18.1208845 18.1685988,18.3195674 C18.5291933,18.5182504 18.8288765,18.7541866 19.0676484,19.0273757 C19.3064203,19.3005648 19.4258064,19.6656448 19.4258064,20.1226158 C19.4258064,20.7186649 19.2552549,21.1830865 18.9141521,21.5158804 C18.5730494,21.8486744 18.0516493,22.0150715 17.349952,22.0150715 C17.0283408,22.0150715 16.6994202,21.9778185 16.3631902,21.9033123 C16.0269603,21.8288062 15.7272771,21.717047 15.4641406,21.5680347 L15.4641406,20.0481097 C15.39592,20.0282414 15.3130809,20.008373 15.2156228,19.9885048 C15.1181648,19.9686365 15.0182705,19.9512517 14.9159396,19.9363505 C14.8136088,19.9214493 14.7161508,19.911515 14.6235658,19.906548 C14.5309808,19.901581 14.450578,19.8990974 14.3823573,19.8990974 C14.35312,20.0679779 14.3287554,20.2592105 14.3092639,20.4727946 C14.2897724,20.6863788 14.2727171,20.9049302 14.2580985,21.1284486 C14.2434798,21.351967 14.2337339,21.5730017 14.2288611,21.7915531 C14.2239882,22.0101045 14.2215517,22.2137545 14.2215517,22.4025034 C14.6211293,22.5713839 15.0767453,22.7079785 15.5883995,22.8122871 C16.1000538,22.9165957 16.6141445,22.96875 17.1306716,22.96875 C17.6082156,22.96875 18.066268,22.9165957 18.5048287,22.8122871 C18.9433895,22.7079785 19.3307849,22.5341308 19.6670148,22.2907442 C20.0032448,22.0473576 20.2736906,21.7294646 20.4783523,21.3370657 C20.683014,20.9446669 20.7853448,20.4554098 20.7853448,19.869295 C20.7853448,19.2732459 20.6659588,18.7864724 20.4271869,18.4089748 C20.1884149,18.0314771 19.891168,17.7135842 19.5354466,17.4552963 C19.1797251,17.1970085 18.7923298,16.9784571 18.3732605,16.7996424 C17.9541912,16.6208277 17.5667959,16.4320787 17.2110744,16.2333958 C16.855353,16.0347128 16.5581061,15.8012602 16.3193342,15.5330381 C16.0805622,15.2648161 15.9611762,14.9121536 15.9611762,14.4750511 C15.9611762,14.0478825 16.134164,13.6877697 16.4801398,13.3947122 C16.8261156,13.1016547 17.3060959,12.955126 17.920081,12.955126 C18.1734716,12.955126 18.4219894,12.9824449 18.6656344,13.0370828 C18.9092793,13.0917207 19.1188138,13.1736774 19.2942382,13.282953 L19.2942382,13.282953 Z" id="Shape"></path>
                <path d="M53.1201144,13.8551614 L53.1201144,15.1732339 C53.3128893,15.2923816 53.5464434,15.3780193 53.8207766,15.4301464 C54.0951099,15.4822734 54.3583218,15.5083371 54.6104118,15.5083371 C54.6845559,15.2551482 54.7438713,14.9684485 54.7883578,14.6482389 C54.8328443,14.3280294 54.8550875,14.0115429 54.8550875,13.6987799 L54.8550875,13.3413366 C54.8550875,13.2221889 54.8402586,13.1104878 54.810601,13.0062334 C54.3064207,12.7977248 53.7874117,12.64879 53.2535738,12.5594291 C52.7197359,12.4700683 52.1933123,12.4253879 51.6743034,12.4253879 C51.1256365,12.4253879 50.6251635,12.496132 50.1728843,12.6376199 C49.7206051,12.7791078 49.3313482,12.9727231 49.0051139,13.2184654 C48.6788795,13.4642077 48.4267895,13.758354 48.2488435,14.1009038 C48.0708975,14.4434536 47.9819246,14.8157905 47.9819246,15.2179144 C47.9819246,15.8732271 48.1116767,16.4093922 48.3711814,16.8264096 C48.630686,17.243427 48.9532131,17.5859768 49.3387626,17.8540594 C49.724312,18.1221419 50.1432267,18.345544 50.5955059,18.5242657 C51.0477852,18.7029874 51.4666999,18.8928792 51.8522493,19.0939411 C52.2377988,19.295003 52.5603259,19.5295752 52.8198305,19.7976578 C53.0793352,20.0657403 53.2090873,20.4231837 53.2090873,20.869988 C53.2090873,21.3763662 53.0385557,21.7822132 52.6974927,22.0875295 C52.3564297,22.3928459 51.9041501,22.5455039 51.3406547,22.5455039 C50.9995917,22.5455039 50.665943,22.5008234 50.3397086,22.4114626 C50.0134742,22.3221017 49.724312,22.1955071 49.472222,22.031679 L49.472222,20.4902044 C49.2349606,20.4157371 48.971749,20.3636097 48.6825868,20.3338229 C48.3934246,20.304036 48.1227983,20.2891425 47.8707083,20.2891425 C47.8113929,20.497651 47.7594921,20.7433933 47.7150056,21.0263694 C47.6705191,21.3093456 47.6482759,21.5923214 47.6482759,21.8752975 C47.6482759,22.0540192 47.6593975,22.2476345 47.6816407,22.456143 C47.703884,22.6646515 47.7298345,22.82848 47.7594921,22.9476277 C48.723366,23.5135796 49.8577715,23.7965557 51.1627087,23.7965557 C51.6817177,23.7965557 52.1821907,23.7369817 52.6641278,23.617834 C53.1460649,23.4986863 53.5723936,23.3125177 53.9431145,23.0593287 C54.3138353,22.8061398 54.6104118,22.4747597 54.8328443,22.0651893 C55.0552768,21.6556189 55.166493,21.1604107 55.166493,20.5795652 C55.166493,19.9391457 55.0367408,19.4104276 54.7772362,18.9934102 C54.5177315,18.5763928 54.1989118,18.2301195 53.8207766,17.9545903 C53.4426414,17.6790611 53.0274341,17.4444889 52.5751548,17.2508736 C52.1228756,17.0572584 51.7076682,16.8599199 51.3295331,16.658858 C50.9513979,16.4577961 50.6325781,16.2269474 50.3730735,15.9663114 C50.1135688,15.7056755 49.9838167,15.3668492 49.9838167,14.9498318 C49.9838167,14.5328144 50.1432267,14.2014347 50.4620465,13.9556924 C50.7808662,13.70995 51.2294385,13.5870789 51.8077628,13.5870789 C52.0598529,13.5870789 52.3008216,13.6131426 52.5306683,13.6652696 C52.7605151,13.7173967 52.9569973,13.7806942 53.1201144,13.8551614 L53.1201144,13.8551614 Z M58.580177,10.0796656 L58.2020418,12.5370889 C57.9944383,12.5817693 57.7720059,12.6413434 57.5347445,12.7158106 C57.2974831,12.7902779 57.0898795,12.8647455 56.9119336,12.9392127 C56.8377895,13.0881476 56.7747668,13.2780394 56.722866,13.5088881 C56.6709652,13.7397369 56.6450146,13.9370756 56.6450146,14.1009038 L58.1797986,14.1009038 C58.150141,14.6668557 58.1316048,15.2588713 58.1241905,15.8769506 C58.1167762,16.4950299 58.1056546,17.0944922 58.0908256,17.6753377 C58.0759967,18.2561832 58.0685824,18.7997949 58.0685824,19.3061731 L58.0685824,20.557225 C58.0685824,21.718916 58.2836005,22.5492273 58.7136365,23.0481586 C59.1436725,23.5470899 59.7887266,23.7965557 60.6487989,23.7965557 C61.0936638,23.7965557 61.5496504,23.7444287 62.0167585,23.6401742 C62.4838667,23.5359198 62.9398532,23.3869853 63.3847181,23.19337 C63.4440336,23.0891156 63.4959344,22.9587978 63.5404209,22.8024163 C63.5849074,22.6460348 63.6071506,22.4859298 63.6071506,22.3221017 L63.6071506,22.1880605 C63.6071506,22.1284865 63.5997363,22.0763594 63.5849074,22.031679 C63.2438444,22.1210398 62.8916594,22.1917839 62.5283532,22.243911 C62.1650469,22.296038 61.8276909,22.3221017 61.5162855,22.3221017 C60.8934746,22.3221017 60.4968035,22.1582736 60.3262718,21.8306171 C60.1557402,21.5029605 60.0704745,20.9742424 60.0704745,20.244462 L60.0704745,14.1009038 L63.3624749,14.1009038 C63.3773038,13.9221821 63.3735965,13.6913333 63.3513533,13.4083572 C63.32911,13.1253811 63.3105741,12.9243191 63.2957452,12.8051715 L60.0704745,12.8051715 L60.0704745,9.72222222 C59.848042,9.72222222 59.5848304,9.75945602 59.2808393,9.83392328 C58.9768481,9.90839054 58.743294,9.99030477 58.580177,10.0796656 L58.580177,10.0796656 Z M71.2470514,22.0986996 L71.3582676,22.0986996 C71.3879251,22.456143 71.4954344,22.7949697 71.6807947,23.1151793 C71.8661549,23.4353888 72.0700515,23.6625144 72.2924839,23.7965557 C72.6780334,23.7965557 73.1117767,23.7295351 73.5937138,23.5954938 C74.0756509,23.4614525 74.4426645,23.3125177 74.6947545,23.1486896 C74.8430429,22.8508202 74.9171869,22.515717 74.9171869,22.14338 C74.9171869,22.0391256 74.9097726,21.9572117 74.8949437,21.8976377 C74.6873402,21.972105 74.4204212,22.0354025 74.0941868,22.0875295 C73.7679525,22.1396566 73.5232768,22.1657203 73.3601597,22.1657203 C73.2711867,22.0763594 73.2007497,21.9162544 73.1488489,21.6854057 C73.0969481,21.454557 73.0709975,21.2274314 73.0709975,21.0040292 L73.0709975,16.6700281 C73.0709975,15.1360001 72.792957,14.0450532 72.2368758,13.3971871 C71.6807947,12.7493209 70.7947721,12.4253879 69.5788079,12.4253879 C69.2822314,12.4253879 68.9597044,12.4477281 68.6112267,12.4924085 C68.2627491,12.5370889 67.9216861,12.5929395 67.5880374,12.6599601 C67.2543887,12.7269807 66.9429833,12.8088949 66.6538211,12.9057024 C66.3646589,13.0025099 66.1311048,13.1030408 65.9531588,13.2072953 C65.8790148,13.326443 65.8196994,13.4902714 65.7752129,13.6987799 C65.7307264,13.9072885 65.7084831,14.1157973 65.7084831,14.3243059 C65.7084831,14.4732407 65.7158974,14.6110051 65.7307264,14.7375998 C65.7455553,14.8641944 65.7752129,14.9796186 65.8196994,15.0838731 C66.0124743,14.9498318 66.2460284,14.8157905 66.5203616,14.6817493 C66.7946949,14.547708 67.0801501,14.4322835 67.3767266,14.335476 C67.6733031,14.2386685 67.9698799,14.1567543 68.2664564,14.0897336 C68.5630329,14.022713 68.8299519,13.9892027 69.0672133,13.9892027 C70.4759521,13.9892027 71.1803216,14.8232372 71.1803216,16.4913064 L71.1803216,17.6976779 C70.8985737,17.5785302 70.5723397,17.4854459 70.2016188,17.4184252 C69.8308979,17.3514046 69.4675917,17.3178943 69.1116998,17.3178943 C68.5630329,17.3178943 68.0366097,17.3923615 67.5324293,17.5412964 C67.0282489,17.6902312 66.5870913,17.9099099 66.2089562,18.2003326 C65.830821,18.4907554 65.5305372,18.8519223 65.3081047,19.2838329 C65.0856722,19.7157436 64.974456,20.2221218 64.974456,20.8029673 C64.974456,21.3242388 65.063429,21.7710431 65.241375,22.14338 C65.4193209,22.515717 65.652875,22.8247565 65.9420372,23.0704988 C66.2311994,23.3162412 66.5685554,23.4986863 66.9541049,23.617834 C67.3396544,23.7369817 67.7326185,23.7965557 68.1329969,23.7965557 C68.8002943,23.7965557 69.4119836,23.6513443 69.9680647,23.3609216 C70.5241459,23.0704988 70.9504749,22.6497583 71.2470514,22.0986996 L71.2470514,22.0986996 Z M71.2025649,18.6806472 L71.2025649,21.1604107 C70.9801324,21.5029605 70.6576053,21.7710431 70.2349837,21.9646583 C69.812362,22.1582736 69.386033,22.2550811 68.955997,22.2550811 C68.4221591,22.2550811 67.9513436,22.1135932 67.5435509,21.8306171 C67.1357582,21.5476409 66.9318617,21.0933901 66.9318617,20.4678641 C66.9318617,19.872125 67.1654157,19.395534 67.6325239,19.0380906 C68.0996321,18.6806472 68.7706368,18.5019255 69.6455377,18.5019255 C69.8679701,18.5019255 70.1311817,18.5168191 70.4351729,18.5466059 C70.739164,18.5763928 70.9949614,18.6210732 71.2025649,18.6806472 L71.2025649,18.6806472 Z M79.7544387,22.0540192 L79.7544387,15.3742958 C79.8730693,15.225361 80.028772,15.0652563 80.2215469,14.8939813 C80.4143218,14.7227062 80.6293396,14.5663247 80.866601,14.4248368 C81.1038624,14.2833489 81.3596597,14.1679244 81.633993,14.0785635 C81.9083263,13.9892027 82.1863668,13.9445223 82.4681147,13.9445223 C83.239214,13.9445223 83.7730519,14.1977112 84.0696284,14.7040895 C84.3662049,15.2104677 84.5144933,15.8955673 84.5144933,16.759389 L84.5144933,21.9869986 C84.3217184,22.031679 84.1029933,22.0949761 83.8583176,22.1768904 C83.6136419,22.2588046 83.4097454,22.3369953 83.2466283,22.4114626 C83.0835113,22.709332 82.9797094,23.0444351 82.9352229,23.4167721 L88.0734127,23.4167721 C88.1030702,23.252944 88.1104849,23.0667754 88.0956559,22.8582668 C88.080827,22.6497583 88.0585838,22.4784832 88.0289262,22.3444419 C87.8213227,22.2699747 87.5692323,22.2066772 87.2726558,22.1545501 C86.9760793,22.1024231 86.6869171,22.0614658 86.4051693,22.031679 L86.4051693,15.3742958 C86.5237998,15.225361 86.6795025,15.0652563 86.8722774,14.8939813 C87.0650523,14.7227062 87.2800701,14.5663247 87.5173315,14.4248368 C87.754593,14.2833489 88.0103903,14.1679244 88.2847235,14.0785635 C88.5590568,13.9892027 88.8370974,13.9445223 89.1188453,13.9445223 C89.8899446,13.9445223 90.4237825,14.1977112 90.720359,14.7040895 C91.0169355,15.2104677 91.1652239,15.8955673 91.1652239,16.759389 L91.1652239,21.9869986 C90.972449,22.031679 90.7537238,22.0949761 90.5090481,22.1768904 C90.2643724,22.2588046 90.0604759,22.3369953 89.8973589,22.4114626 C89.7342418,22.709332 89.6304399,23.0444351 89.5859534,23.4167721 L94.8576027,23.4167721 C94.8724316,23.3423049 94.8798459,23.2827308 94.8798459,23.2380504 L94.8798459,23.0369885 C94.8798459,22.7540124 94.8576027,22.5231636 94.8131162,22.3444419 C94.5906838,22.2699747 94.3089359,22.2104007 93.9678729,22.1657203 C93.6268099,22.1210398 93.3079898,22.083806 93.0114133,22.0540192 C93.1003863,20.2221218 93.1448728,18.3529906 93.1448728,16.446626 C93.1448728,15.5828044 93.0558998,14.8865347 92.8779538,14.3578162 C92.7000078,13.8290977 92.4590395,13.4232508 92.1550483,13.1402746 C91.8510572,12.8572985 91.5025799,12.6674067 91.1096158,12.5705992 C90.7166516,12.4737918 90.3051516,12.4253879 89.8751156,12.4253879 C89.3709353,12.4253879 88.918656,12.4924085 88.5182776,12.6264498 C88.1178992,12.760491 87.7694216,12.9280426 87.4728451,13.1291045 C87.1762686,13.3301664 86.9278855,13.5498451 86.7276963,13.7881408 C86.5275071,14.0264365 86.382926,14.2498386 86.293953,14.4583471 L86.1827368,14.4583471 C86.0789349,14.0413297 85.9306468,13.7025034 85.7378719,13.4418675 C85.545097,13.1812316 85.3189575,12.9764465 85.0594529,12.8275117 C84.7999482,12.6785768 84.5144933,12.5743227 84.2030879,12.5147487 C83.8916825,12.4551747 83.5654481,12.4253879 83.2243851,12.4253879 C82.7350337,12.4253879 82.2938761,12.488685 81.900912,12.6152797 C81.5079478,12.7418743 81.1668848,12.9019789 80.8777226,13.0955942 C80.5885604,13.2892095 80.3475921,13.4939946 80.1548171,13.70995 C79.9620422,13.9259055 79.8137542,14.1306906 79.7099522,14.3243059 L79.4875198,14.3243059 L79.4875198,12.6934704 C79.1761143,12.6041096 78.8276367,12.5594291 78.4420872,12.5594291 C78.1010242,12.5594291 77.7673755,12.589216 77.4411411,12.64879 C77.1149068,12.708364 76.8331592,12.7828313 76.5958978,12.8721921 C76.4772673,13.0360202 76.384587,13.225912 76.3178572,13.4418675 C76.2511275,13.657823 76.2103483,13.862608 76.1955194,14.0562233 L77.8192763,14.0562233 L77.8192763,21.9869986 C77.5968439,22.031679 77.3484608,22.0949761 77.0741276,22.1768904 C76.7997943,22.2588046 76.5736546,22.3369953 76.3957086,22.4114626 C76.2325916,22.709332 76.1287896,23.0444351 76.0843031,23.4167721 L81.4226822,23.4167721 C81.4523397,23.252944 81.4597544,23.0667754 81.4449254,22.8582668 C81.4300965,22.6497583 81.4078532,22.4784832 81.3781957,22.3444419 C81.1705922,22.2699747 80.9185018,22.2104007 80.6219253,22.1657203 C80.3253488,22.1210398 80.0361866,22.083806 79.7544387,22.0540192 L79.7544387,22.0540192 Z M99.3389625,22.14338 L99.3389625,15.2625948 C99.576224,14.920045 99.8950437,14.607282 100.295422,14.3243059 C100.695801,14.0413297 101.222224,13.8998418 101.874693,13.8998418 C102.719936,13.8998418 103.409477,14.2610087 103.943314,14.9833421 C104.477152,15.7056755 104.744071,16.7444954 104.744071,18.0998017 C104.744071,19.395534 104.454909,20.4455239 103.876585,21.2497716 C103.29826,22.0540192 102.401116,22.456143 101.185152,22.456143 C100.844089,22.456143 100.517855,22.4263562 100.206449,22.3667822 C99.8950437,22.3072081 99.6058815,22.2327409 99.3389625,22.14338 L99.3389625,22.14338 Z M99.3612058,27.1475875 L99.3612058,23.2603906 C99.5984672,23.4242187 99.902458,23.5545369 100.273179,23.6513443 C100.6439,23.7481518 100.992377,23.7965557 101.318611,23.7965557 C102.119368,23.7965557 102.853395,23.6550678 103.520693,23.3720917 C104.18799,23.0891156 104.762607,22.6832686 105.244544,22.1545501 C105.726481,21.6258317 106.100909,20.9928591 106.367828,20.2556321 C106.634747,19.5184051 106.768207,18.7029874 106.768207,17.8093789 C106.768207,16.7966228 106.642162,15.9476947 106.390072,15.2625948 C106.137981,14.5774948 105.80804,14.022713 105.400247,13.598249 C104.992454,13.173785 104.540175,12.8721921 104.043409,12.6934704 C103.546643,12.5147487 103.053585,12.4253879 102.564233,12.4253879 C102.089711,12.4253879 101.681918,12.4737918 101.340855,12.5705992 C100.999792,12.6674067 100.699508,12.7940014 100.440003,12.9503828 C100.180499,13.1067643 99.9580661,13.2892095 99.7727058,13.497718 C99.5873456,13.7062266 99.4279355,13.9221821 99.2944761,14.1455842 L99.0720436,14.1455842 L99.0720436,12.6934704 C98.7606382,12.6041096 98.4121605,12.5594291 98.026611,12.5594291 C97.7003767,12.5594291 97.3741426,12.589216 97.0479082,12.64879 C96.7216738,12.708364 96.4325116,12.7828313 96.1804216,12.8721921 C96.0617911,13.0360202 95.9691108,13.225912 95.9023811,13.4418675 C95.8356513,13.657823 95.7948721,13.862608 95.7800432,14.0562233 L97.4260434,14.0562233 L97.4260434,27.1475875 C97.2036109,27.1922679 96.9552279,27.2555651 96.6808947,27.3374793 C96.4065614,27.4193935 96.1804216,27.4975843 96.0024757,27.5720515 C95.8393586,27.8699209 95.7355567,28.2050241 95.6910702,28.5773611 L101.518801,28.5773611 C101.548458,28.413533 101.555873,28.2348113 101.541044,28.041196 C101.526215,27.8475807 101.503972,27.6837526 101.474314,27.5497113 C101.355684,27.5050309 101.207395,27.464074 101.029449,27.4268402 C100.851503,27.3896064 100.662436,27.3523729 100.462246,27.3151391 C100.262057,27.2779053 100.065575,27.244395 99.8728004,27.2146081 C99.6800255,27.1848213 99.5094942,27.1624811 99.3612058,27.1475875 L99.3612058,27.1475875 Z M111.049377,18.3678842 L117.855811,18.3678842 C117.900297,17.9657604 117.92254,17.5710832 117.92254,17.183853 C117.92254,16.4838598 117.848396,15.8397168 117.700108,15.2514247 C117.551819,14.6631325 117.32568,14.1604778 117.021689,13.7434604 C116.717698,13.326443 116.324734,13.0025099 115.842797,12.7716611 C115.36086,12.5408124 114.786243,12.4253879 114.118945,12.4253879 C113.333017,12.4253879 112.62494,12.5780459 111.994715,12.8833622 C111.36449,13.1886785 110.826945,13.6094191 110.38208,14.1455842 C109.937215,14.6817493 109.592445,15.3072752 109.347769,16.022162 C109.103093,16.7370488 108.980755,17.5040626 108.980755,18.3232038 C108.980755,19.0976646 109.091972,19.8162745 109.314404,20.4790343 C109.536837,21.141794 109.863071,21.718916 110.293107,22.2104007 C110.723143,22.7018853 111.245859,23.0891156 111.861256,23.3720917 C112.476652,23.6550678 113.184729,23.7965557 113.985486,23.7965557 C114.682441,23.7965557 115.342324,23.6997483 115.965135,23.506133 C116.587946,23.3125177 117.09954,23.1040092 117.499919,22.880607 C117.603721,22.7167789 117.685279,22.5045469 117.744594,22.243911 C117.80391,21.9832751 117.818738,21.7710431 117.789081,21.607215 C117.581477,21.6816822 117.347923,21.7561498 117.088419,21.8306171 C116.828914,21.9050843 116.558288,21.972105 116.27654,22.031679 C115.994792,22.091253 115.716752,22.1396566 115.442418,22.1768904 C115.168085,22.2141242 114.912288,22.2327409 114.675026,22.2327409 C113.62218,22.2327409 112.762107,21.8901911 112.09481,21.2050911 C111.427512,20.5199912 111.079035,19.5742557 111.049377,18.3678842 L111.049377,18.3678842 Z M115.942891,17.0721519 L111.049377,17.0721519 C111.123521,16.0445022 111.397855,15.2179144 111.872377,14.5923884 C112.3469,13.9668625 112.98454,13.6540995 113.785297,13.6540995 C114.24499,13.6540995 114.626833,13.758354 114.930824,13.9668625 C115.234815,14.175371 115.468369,14.447177 115.631486,14.7822802 C115.794603,15.1173834 115.898405,15.4859969 115.942891,15.8881207 C115.987378,16.2902445 115.987378,16.6849217 115.942891,17.0721519 L115.942891,17.0721519 Z M123.427089,14.8157905 L123.204657,14.8157905 L123.204657,12.6934704 C122.893252,12.6041096 122.544774,12.5594291 122.159224,12.5594291 C121.83299,12.5594291 121.506756,12.589216 121.180522,12.64879 C120.854287,12.708364 120.565125,12.7828313 120.313035,12.8721921 C120.194405,13.0360202 120.101724,13.225912 120.034994,13.4418675 C119.968265,13.657823 119.927486,13.862608 119.912657,14.0562233 L121.536414,14.0562233 L121.536414,21.9869986 C121.313981,22.031679 121.065598,22.0949761 120.791265,22.1768904 C120.516932,22.2588046 120.290792,22.3369953 120.112846,22.4114626 C119.949729,22.709332 119.845927,23.0444351 119.80144,23.4167721 L125.718144,23.4167721 C125.747801,23.252944 125.755216,23.0742223 125.740387,22.880607 C125.725558,22.6869917 125.703315,22.5231636 125.673657,22.3891224 C125.540198,22.3444419 125.380788,22.2997615 125.195428,22.2550811 C125.010067,22.2104007 124.817292,22.1694437 124.617103,22.1322099 C124.416914,22.0949761 124.213017,22.0651893 124.005414,22.0428491 C123.79781,22.0205089 123.619864,22.0018921 123.471576,21.9869986 L123.471576,15.9998218 C123.753324,15.3594022 124.120337,14.8939813 124.572617,14.6035585 C125.024896,14.3131358 125.51054,14.1679244 126.029549,14.1679244 C126.296468,14.1679244 126.563387,14.2014347 126.830306,14.2684553 C127.097225,14.335476 127.334486,14.4285603 127.54209,14.547708 C127.586576,14.3689863 127.60882,14.1679244 127.60882,13.9445223 C127.60882,13.6615461 127.579162,13.4009106 127.519847,13.1626149 C127.460531,12.9243191 127.393802,12.7381508 127.319657,12.6041096 C127.186198,12.5445355 127.019374,12.4998551 126.819184,12.4700683 C126.618995,12.4402815 126.452171,12.4253879 126.318711,12.4253879 C125.592099,12.4253879 124.969288,12.6525135 124.450279,13.1067643 C123.93127,13.5610152 123.590206,14.1306906 123.427089,14.8157905 L123.427089,14.8157905 Z M135.109866,21.9370468 L134.954163,21.9370468 C134.924505,21.8030056 134.89114,21.635454 134.854068,21.4343921 C134.816996,21.2333302 134.776217,21.0322683 134.73173,20.8312064 C134.687244,20.6301445 134.642757,20.432806 134.598271,20.2391907 C134.553784,20.0455755 134.509298,19.889194 134.464811,19.7700463 L133.063487,15.8605092 C132.944856,15.5477462 132.815104,15.2200897 132.67423,14.8775399 C132.533356,14.5349901 132.39619,14.2371204 132.26273,13.9839314 C132.51482,13.9541446 132.796568,13.9169108 133.107973,13.8722304 C133.419379,13.8275499 133.678884,13.7754229 133.886487,13.7158489 C133.930974,13.5520208 133.971753,13.362129 134.008825,13.1461735 C134.045897,12.930218 134.064433,12.7328795 134.064433,12.5541578 L129.037459,12.5541578 C129.052288,12.7328795 129.078239,12.930218 129.115311,13.1461735 C129.152383,13.362129 129.200576,13.5520208 129.259892,13.7158489 C129.423009,13.7903161 129.604662,13.8610602 129.804851,13.9280809 C130.005041,13.9951015 130.208937,14.050952 130.416541,14.0956325 L134.04219,23.5902225 C133.715955,24.3348961 133.215482,24.9976559 132.540771,25.5785014 C131.866059,26.1593469 131.024523,26.5912575 130.016162,26.8742337 C130.04582,27.2018902 130.149622,27.5183763 130.327568,27.8236927 C130.505514,28.129009 130.676045,28.3635813 130.839162,28.5274094 C131.847523,28.169966 132.718717,27.6412475 133.452744,26.9412543 C134.186771,26.2412611 134.813289,25.3550993 135.332298,24.2827691 C135.539902,23.8657517 135.758627,23.374267 135.988474,22.8083151 C136.218321,22.2423632 136.44446,21.6577942 136.666893,21.0546085 C136.889325,20.4514228 137.100636,19.8556837 137.300825,19.2673915 C137.501014,18.6790994 137.682668,18.1541044 137.845785,17.6924066 L139.11365,13.9839314 C139.261938,13.9690378 139.439884,13.9429745 139.647488,13.9057407 C139.855091,13.8685069 140.025623,13.8275499 140.159082,13.7828695 C140.218398,13.6190414 140.270299,13.414256 140.314785,13.1685137 C140.359272,12.9227713 140.381515,12.717986 140.381515,12.5541578 L136.133055,12.5541578 C136.133055,12.9562817 136.19237,13.3360653 136.311001,13.6935087 C136.474118,13.7679759 136.685429,13.8275499 136.944933,13.8722304 C137.204438,13.9169108 137.437992,13.9541446 137.645596,13.9839314 C137.571452,14.1179727 137.497307,14.2743542 137.423163,14.4530759 C137.349019,14.6317976 137.274875,14.8216894 137.200731,15.0227513 C137.126587,15.2238132 137.05615,15.4211516 136.98942,15.6147669 C136.92269,15.8083822 136.867082,15.9871039 136.822595,16.150932 L135.710433,19.7030257 C135.665947,19.8370669 135.614046,20.0046185 135.55473,20.2056804 C135.495415,20.4067423 135.439807,20.6115277 135.387906,20.8200363 C135.336005,21.0285448 135.284104,21.2333302 135.232203,21.4343921 C135.180303,21.635454 135.139523,21.8030056 135.109866,21.9370468 L135.109866,21.9370468 Z" id="stamper"></path>
            </g>
        </g>
    </g>
</svg>