<?xml version="1.0" encoding="UTF-8" standalone="no"?>
<svg width="6px" height="11px" viewBox="0 0 6 11" version="1.1" xmlns="http://www.w3.org/2000/svg" xmlns:xlink="http://www.w3.org/1999/xlink">
    <!-- Generator: Sketch 3.7.1 (28215) - http://www.bohemiancoding.com/sketch -->
    <title>Shape Copy 3</title>
    <desc>Created with Sketch.</desc>
    <defs></defs>
    <g id="Page-1" stroke="none" stroke-width="1" fill="none" fill-rule="evenodd">
        <g id="Artboard-1" transform="translate(-227.000000, -175.000000)" fill="#FFFFFF">
            <g id="Group-2" transform="translate(0.000000, 90.000000)">
                <path d="M230.478622,87.6841472 C230.209435,87.4379736 229.788085,87.4391506 229.52073,87.6844836 L224.769312,92.0444814 C224.615927,92.1852241 224.52136,92.3833065 224.50318,92.6020715 C224.484999,92.8213409 224.545192,93.0347251 224.673217,93.2035491 C224.815908,93.3918786 225.02536,93.5 225.247952,93.5 C225.422572,93.5 225.592304,93.432235 225.726592,93.30898 L229.962505,89.2065934 L234.27383,93.3093163 C234.408118,93.4320668 234.57785,93.4994955 234.751859,93.4994955 C234.97445,93.4994955 235.183903,93.3917105 235.326289,93.2035491 C235.454007,93.0348932 235.514811,92.8215091 235.496937,92.6024078 C235.478299,92.3834747 235.383732,92.1853923 235.230347,92.0448177 L230.478622,87.6841472 Z" id="Shape-Copy-3" transform="translate(230.000000, 90.500000) rotate(-270.000000) translate(-230.000000, -90.500000) "></path>
            </g>
        </g>
    </g>
</svg>